# xmcd
#
# Track frame offsets: 
#        150
#        17845
#        55527
#        92859
#        141415
#        187078
#        212800
#        243024
#
# Disc length: 3476 seconds
#
# Revision: 0
# Processed by: cddbd v1.5.2PL0 Copyright (c) Steve Scherf et al.
# Submitted via: ExactAudioCopy v0.95b4
#
DISCID=6d0d9208
DTITLE=Chris Rea - The Road To Hell And Back
DYEAR=2006
DGENRE=Blues and Rock
TTITLE0=01 - Julia
TTITLE1=02 - Stainsby Girls
TTITLE2=03 - Somewhere Between Highway 61 and 48
TTITLE3=04 - I Can Hear Your Heartbeat
TTITLE4=05 - The Road To Hell
TTITLE5=06 - On The Beach
TTITLE6=07 - Let's Dance
TTITLE7=08 - Fool (If You Think It's Over)
EXTD=
EXTT0=
EXTT1=
EXTT2=
EXTT3=
EXTT4=
EXTT5=
EXTT6=
EXTT7=
PLAYORDER=
